<svg height="512pt" viewBox="0 0 512 512.00047" width="512pt" xmlns="http://www.w3.org/2000/svg"><g fill="#f2433b"><path d="m8.789062 484.691406 125.332032-277 170.210937 170.210938-277 125.332031c-11.777343 5.328125-23.871093-6.769531-18.542969-18.542969zm0 0"/><path d="m504.25 180.125c0 10.90625-8.839844 19.746094-19.746094 19.746094s-19.746094-8.839844-19.746094-19.746094 8.839844-19.746094 19.746094-19.746094 19.746094 8.839844 19.746094 19.746094zm0 0"/><path d="m196.910156 27.351562c0 10.90625-8.839844 19.746094-19.746094 19.746094s-19.746093-8.839844-19.746093-19.746094 8.839843-19.75 19.746093-19.75 19.746094 8.84375 19.746094 19.75zm0 0"/></g><path d="m128.660156 202.234375 181.132813 181.128906c6.191406 6.195313 16.238281 6.195313 22.433593 0 6.195313-6.195312 6.195313-16.238281 0-22.433593l-181.132812-181.132813c-6.191406-6.195313-16.238281-6.195313-22.433594 0-6.195312 6.195313-6.195312 16.238281 0 22.4375zm0 0" fill="#e0e0e2"/><path d="m332.226562 360.925781-21.519531-21.515625c6.195313 6.195313 6.195313 16.238282 0 22.433594-6.195312 6.195312-16.238281 6.195312-22.433593 0l21.519531 21.519531c6.191406 6.195313 16.238281 6.195313 22.433593 0 6.195313-6.195312 6.195313-16.242187 0-22.4375zm0 0" fill="#c7c6cc"/><path d="m282.8125 356.386719-271.5625 122.871093-2.460938 5.433594c-5.328124 11.773438 6.769532 23.871094 18.542969 18.542969l277-125.332031zm0 0" fill="#d83636"/><path d="m62.160156 111.226562 1.828125.820313c8.359375 3.75 15.050781 10.4375 18.796875 18.796875l.820313 1.832031c2.21875 4.945313 9.238281 4.945313 11.457031 0l.820312-1.828125c3.746094-8.363281 10.4375-15.050781 18.796876-18.800781l1.832031-.820313c4.945312-2.214843 4.945312-9.238281 0-11.457031l-1.832031-.816406c-8.359376-3.75-15.050782-10.4375-18.796876-18.800781l-.820312-1.828125c-2.214844-4.945313-9.238281-4.945313-11.457031 0l-.820313 1.832031c-3.746094 8.359375-10.4375 15.046875-18.796875 18.796875l-1.828125.820313c-4.949218 2.214843-4.949218 9.238281 0 11.453124zm0 0" fill="#ffdb57"/><path d="m379.402344 44.085938 1.828125.820312c8.363281 3.746094 15.050781 10.4375 18.800781 18.796875l.820312 1.832031c2.214844 4.945313 9.238282 4.945313 11.453126 0l.820312-1.832031c3.75-8.359375 10.441406-15.050781 18.800781-18.796875l1.828125-.820312c4.949219-2.21875 4.949219-9.238282 0-11.457032l-1.828125-.820312c-8.359375-3.746094-15.050781-10.4375-18.800781-18.796875l-.820312-1.832031c-2.214844-4.945313-9.238282-4.945313-11.453126 0l-.820312 1.832031c-3.75 8.359375-10.4375 15.050781-18.800781 18.796875l-1.828125.820312c-4.945313 2.21875-4.945313 9.238282 0 11.457032zm0 0" fill="#ffdb57"/><path d="m412.78125 405.921875 1.828125.820313c8.359375 3.746093 15.050781 10.4375 18.796875 18.796874l.820312 1.828126c2.21875 4.949218 9.238282 4.949218 11.457032 0l.820312-1.828126c3.746094-8.359374 10.4375-15.050781 18.796875-18.796874l1.832031-.820313c4.945313-2.21875 4.945313-9.242187 0-11.457031l-1.832031-.820313c-8.359375-3.746093-15.050781-10.4375-18.796875-18.800781l-.820312-1.828125c-2.21875-4.945313-9.238282-4.945313-11.457032 0l-.820312 1.832031c-3.746094 8.359375-10.4375 15.050782-18.796875 18.796875l-1.828125.820313c-4.949219 2.214844-4.949219 9.238281 0 11.457031zm0 0" fill="#ffdb57"/><path d="m80.597656 325.984375c42.664063 24.679687 100.902344 52.886719 172.832032 74.949219l50.902343-23.03125-18.164062-18.164063c-77.105469-23.742187-139.671875-55.601562-183.675781-82.144531zm0 0" fill="#ffdb56"/><path d="m286.167969 359.738281c-2.132813-.65625-4.253907-1.324219-6.363281-1.992187l-66.125 29.921875c12.742187 4.601562 25.992187 9.046875 39.75 13.265625l50.902343-23.03125zm0 0" fill="#f6c134"/><path d="m36.71875 422.964844c23.730469 12.839844 51.332031 26.117187 82.683594 38.609375l65.71875-29.734375c-50.746094-17.710938-93.109375-37.992188-126.707032-56.828125zm0 0" fill="#ffdb56"/><path d="m83.859375 446.402344c11.257813 5.128906 23.101563 10.214844 35.542969 15.171875l65.71875-29.734375c-13.132813-4.582032-25.691406-9.339844-37.691406-14.199219zm0 0" fill="#f6c134"/><path d="m156.390625 174.523438c-9.109375-9.109376-23.933594-9.109376-33.042969 0-9.109375 9.109374-9.109375 23.933593 0 33.042968l1.789063 1.789063-73.566407 162.589843s-49.625 109.683594-49.625 109.683594c-3.726562 8.238282-2.0039058 17.691406 4.386719 24.082032 6.300781 6.300781 15.957031 8.066406 24.082031 4.390624l272.273438-123.191406 1.789062 1.789063c4.554688 4.554687 10.539063 6.832031 16.523438 6.832031s11.96875-2.277344 16.523438-6.832031c9.109374-9.109375 9.109374-23.933594 0-33.046875zm134.960937 201.046874-38.433593 17.386719c-18.714844-5.808593-37.402344-12.328125-55.59375-19.390625-3.863281-1.5-8.207031.414063-9.707031 4.277344-1.5 3.859375.414062 8.207031 4.277343 9.707031 13.351563 5.1875 26.96875 10.074219 40.667969 14.617188l-47.78125 21.621093c-24.132812-8.523437-47.910156-18.179687-70.714844-28.75-3.757812-1.742187-8.21875-.105468-9.960937 3.652344-1.742188 3.761719-.105469 8.21875 3.652343 9.960938 18.621094 8.632812 37.875 16.675781 57.441407 23.996094l-45.980469 20.804687c-24.996094-10.082031-49.433594-21.414063-72.777344-33.761719l15.449219-34.148437c6.105469 3.335937 12.320313 6.621093 18.550781 9.804687 3.6875 1.886719 8.207032.425782 10.09375-3.265625 1.886719-3.6875.421875-8.207031-3.265625-10.09375-6.445312-3.292969-12.871093-6.699219-19.175781-10.15625l15.941406-35.230469c25.4375 14.355469 52.210938 27.621094 79.742188 39.453126 3.808594 1.636718 8.21875-.125 9.855468-3.929688 1.632813-3.808594-.125-8.21875-3.933593-9.855469-27.449219-11.800781-54.152344-25.03125-79.464844-39.375l15.621094-34.527343c55.421875 32.664062 114.6875 58.890624 176.3125 78.019531zm-267.121093 120.859376c-5.394531 2.441406-11.054688-3.21875-8.613281-8.613282l24.632812-54.445312c19.445312 10.253906 39.625 19.816406 60.242188 28.554687zm302.683593-118.34375c-3.261718 3.261718-8.566406 3.261718-11.828124 0l-127.808594-127.808594c-2.929688-2.929688-7.679688-2.929688-10.609375 0-2.929688 2.929687-2.929688 7.679687 0 10.609375l81.875 81.875c-50.976563-17.859375-100.09375-40.714844-146.457031-68.164063l24.390624-53.902344 18.964844 18.964844c2.929688 2.929688 7.679688 2.929688 10.609375 0 2.929688-2.929687 2.929688-7.679687 0-10.609375l-32.09375-32.09375c-3.257812-3.257812-3.257812-8.566406 0-11.824219 3.261719-3.261718 8.566407-3.261718 11.824219 0l181.132812 181.128907c3.257813 3.261719 3.257813 8.566406 0 11.824219zm0 0"/><path d="m226.066406 102.253906c7.527344 31.761719.101563 61.5625-22.070312 88.5625-2.628906 3.203125-2.164063 7.929688 1.035156 10.558594 3.160156 2.597656 7.96875 2.121094 10.558594-1.035156 31.519531-38.382813 31.035156-76.40625 25.078125-101.546875-6.402344-27.023438-20.148438-44.902344-20.730469-45.652344-2.546875-3.269531-7.257812-3.859375-10.527344-1.3125-3.273437 2.542969-3.859375 7.257813-1.316406 10.527344.125.15625 12.316406 16.019531 17.972656 39.898437zm0 0"/><path d="m449.699219 303.957031c3.269531 2.535157 7.976562 1.945313 10.519531-1.320312 2.542969-3.269531 1.957031-7.984375-1.316406-10.527344-.746094-.582031-18.628906-14.332031-45.652344-20.734375-25.136719-5.953125-63.160156-6.4375-101.542969 25.078125-3.203125 2.628906-3.667969 7.355469-1.039062 10.558594 2.59375 3.160156 7.398437 3.632812 10.558593 1.039062 26.839844-22.039062 56.453126-29.507812 88.019532-22.203125 23.949218 5.546875 40.226562 17.9375 40.453125 18.109375zm0 0"/><path d="m436.714844 174.160156c-42.78125 1.996094-81.542969 21.882813-106.523438 38.21875-26.894531 17.582032-43.652344 34.527344-44.351562 35.242188-2.90625 2.953125-2.863282 7.699218.089844 10.605468 2.914062 2.863282 7.742187 2.824219 10.609374-.089843.644532-.652344 65.289063-65.460938 140.875-68.988281 4.136719-.191407 7.335938-3.703126 7.144532-7.84375-.195313-4.136719-3.691406-7.355469-7.84375-7.144532zm0 0"/><path d="m276.726562 198.988281c1.890626 0 3.785157-.710937 5.242188-2.140625.613281-.597656 15.125-14.910156 29.078125-38.835937 18.554687-31.820313 27.207031-65.679688 25.019531-97.925781-.28125-4.136719-3.855468-7.265626-7.992187-6.976563-4.136719.28125-7.257813 3.859375-6.980469 7.992187 4.796875 70.648438-48.984375 124.398438-49.617188 125.023438-2.957031 2.898438-3.011718 7.644531-.113281 10.605469 1.46875 1.503906 3.414063 2.257812 5.363281 2.257812zm0 0"/><path d="m484.492188 152.90625c-15.023438 0-27.246094 12.222656-27.246094 27.25 0 15.023438 12.222656 27.246094 27.246094 27.246094 15.027343 0 27.25-12.222656 27.25-27.246094 0-15.027344-12.222657-27.25-27.25-27.25zm0 39.492188c-6.75 0-12.242188-5.492188-12.242188-12.242188 0-6.753906 5.492188-12.246094 12.242188-12.246094 6.753906 0 12.246093 5.492188 12.246093 12.246094 0 6.75-5.492187 12.242188-12.246093 12.242188zm0 0"/><path d="m177.15625 54.628906c15.023438 0 27.246094-12.222656 27.246094-27.25 0-15.023437-12.222656-27.246094-27.246094-27.246094-15.027344 0-27.25 12.222657-27.25 27.246094 0 15.027344 12.222656 27.25 27.25 27.25zm0-39.492187c6.75 0 12.242188 5.492187 12.242188 12.246093 0 6.75-5.492188 12.242188-12.242188 12.242188-6.753906 0-12.246094-5.492188-12.246094-12.242188 0-6.753906 5.492188-12.246093 12.246094-12.246093zm0 0"/><path d="m470.191406 387.648438c-8.410156-3.371094-14.300781-9.261719-17.671875-17.671876-2.25-5.023437-7.070312-8.140624-12.574219-8.140624-5.503906 0-10.320312 3.117187-12.574218 8.144531-3.371094 8.40625-9.261719 14.296875-17.667969 17.667969-5.023437 2.25-8.144531 7.070312-8.144531 12.574218s3.121094 10.324219 8.144531 12.574219c8.40625 3.371094 14.296875 9.261719 17.667969 17.671875 2.25 5.023438 7.070312 8.140625 12.574218 8.140625 5.503907 0 10.324219-3.117187 12.574219-8.140625 3.371094-8.410156 9.261719-14.300781 17.671875-17.671875 5.023438-2.25 8.140625-7.066406 8.140625-12.574219 0-5.503906-3.117187-10.324218-8.140625-12.574218zm-30.246094 34.199218c-4.453124-9.53125-12.09375-17.171875-21.625-21.625 9.53125-4.457031 17.171876-12.09375 21.625-21.628906 4.457032 9.535156 12.097657 17.171875 21.628907 21.628906-9.53125 4.453125-17.171875 12.09375-21.628907 21.625zm0 0"/><path d="m119.570312 92.957031c-8.410156-3.371093-14.296874-9.261719-17.671874-17.671875-2.25-5.023437-7.070313-8.140625-12.574219-8.140625-5.503907 0-10.320313 3.117188-12.574219 8.144531-3.371094 8.40625-9.261719 14.296876-17.667969 17.667969-5.023437 2.25-8.144531 7.070313-8.144531 12.574219s3.121094 10.320312 8.144531 12.574219c8.40625 3.371093 14.296875 9.261719 17.667969 17.667969 2.253906 5.023437 7.070312 8.144531 12.574219 8.144531 5.503906 0 10.324219-3.121094 12.574219-8.144531 3.371093-8.40625 9.261718-14.296876 17.671874-17.667969 5.023438-2.25 8.144532-7.070313 8.144532-12.574219s-3.121094-10.324219-8.144532-12.574219zm-30.246093 34.199219c-4.453125-9.53125-12.09375-17.171875-21.625-21.625 9.53125-4.457031 17.171875-12.09375 21.625-21.628906 4.457031 9.535156 12.097656 17.171875 21.628906 21.628906-9.53125 4.453125-17.171875 12.09375-21.628906 21.625zm0 0"/><path d="m436.816406 25.8125c-8.410156-3.371094-14.300781-9.261719-17.671875-17.667969-2.25-5.023437-7.070312-8.144531-12.574219-8.144531-5.503906 0-10.324218 3.121094-12.574218 8.144531-3.371094 8.410157-9.261719 14.296875-17.671875 17.667969-5.023438 2.253906-8.144531 7.070312-8.144531 12.574219 0 5.507812 3.121093 10.324219 8.144531 12.574219 8.410156 3.371093 14.300781 9.261718 17.671875 17.671874 2.25 5.023438 7.070312 8.144532 12.574218 8.144532 5.503907 0 10.320313-3.121094 12.574219-8.144532 3.371094-8.40625 9.261719-14.296874 17.667969-17.671874 5.023438-2.25 8.144531-7.066407 8.144531-12.574219 0-5.503907-3.117187-10.320313-8.140625-12.574219zm-30.246094 34.203125c-4.453124-9.53125-12.09375-17.171875-21.628906-21.628906 9.535156-4.453125 17.171875-12.09375 21.628906-21.625 4.457032 9.53125 12.09375 17.171875 21.625 21.625-9.527343 4.457031-17.167968 12.097656-21.625 21.628906zm0 0"/></svg>